<?xml version="1.0" encoding="UTF-8"?>
<!DOCTYPE svg PUBLIC "-//W3C//DTD SVG 1.1//EN" "http://www.w3.org/Graphics/SVG/1.1/DTD/svg11.dtd">
<!-- Creator: CorelDRAW 2019 (64-Bit) -->
<svg xmlns="http://www.w3.org/2000/svg" xml:space="preserve" width="250px" height="210px" version="1.1" style="shape-rendering:geometricPrecision; text-rendering:geometricPrecision; image-rendering:optimizeQuality; fill-rule:evenodd; clip-rule:evenodd"
viewBox="0 0 250 210"
 xmlns:xlink="http://www.w3.org/1999/xlink"
 xmlns:xodm="http://www.corel.com/coreldraw/odm/2003">
 <defs>
  <style type="text/css">
   <![CDATA[
    .fil0 {fill:#1E3A8A;fill-rule:nonzero}
   ]]>
  </style>
 </defs>
 <g id="Слой_x0020_2">
  <metadata id="CorelCorpID_0Corel-Layer"/>
  <g id="_2169410867776">
   <g>
    <g>
     <path class="fil0" d="M159.3 193.52l-44.06 0 0 -9.45 44.06 0 4.73 4.73 -4.73 4.72zm0 -9.45c2.61,0 4.73,2.12 4.73,4.73 0,2.6 -2.12,4.72 -4.73,4.72l0 -9.45zm4.73 -130.92l0 135.65 -9.45 0 0 -135.65 3.55 -4.57 5.9 4.57zm-9.45 0c0,-2.61 2.12,-4.72 4.72,-4.72 2.61,0 4.73,2.11 4.73,4.72l-9.45 0zm-131.53 30.05l135.08 -34.62 2.35 9.14 -135.09 34.62 -5.89 -4.57 3.55 -4.57zm2.34 9.14c-2.52,0.65 -5.1,-0.87 -5.74,-3.4 -0.65,-2.52 0.87,-5.1 3.4,-5.74l2.34 9.14zm-5.89 96.46l0 -101.03 9.44 0 0 101.03 -4.72 4.72 -4.72 -4.72zm9.44 0c0,2.6 -2.11,4.72 -4.72,4.72 -2.61,0 -4.72,-2.12 -4.72,-4.72l9.44 0zm12.66 4.72l-17.38 0 0 -9.45 17.38 0 0 9.45z"/>
    </g>
    <g>
     <g>
      <path class="fil0" d="M242.47 48.7l-65.78 -39.66 4.88 -8.08 65.78 39.65 2.28 4.04 -7.16 4.05zm4.88 -8.09c2.23,1.35 2.95,4.25 1.6,6.48 -1.34,2.23 -4.25,2.95 -6.48,1.61l4.88 -8.09zm-7.16 148.19l0 -144.15 9.44 0 0 144.15 -4.72 4.72 -4.72 -4.72zm9.44 0c0,2.6 -2.12,4.72 -4.72,4.72 -2.61,0 -4.72,-2.12 -4.72,-4.72l9.44 0zm-70.5 -4.73l65.78 0 0 9.45 -65.78 0 -4.72 -4.72 4.72 -4.73zm0 9.45c-2.6,0 -4.72,-2.12 -4.72,-4.72 0,-2.61 2.12,-4.73 4.72,-4.73l0 9.45zm4.72 -188.52l0 183.8 -9.44 0 0 -183.8 7.16 -4.04 2.28 4.04zm-9.44 0c0,-2.61 2.12,-4.72 4.72,-4.72 2.61,0 4.72,2.11 4.72,4.72l-9.44 0z"/>
     </g>
     <g>
      <path class="fil0" d="M5.09 184.07l36.51 0 0 9.45 -36.51 0 -4.72 -4.72 4.72 -4.73zm0 9.45c-2.6,0 -4.72,-2.12 -4.72,-4.72 0,-2.61 2.12,-4.73 4.72,-4.73l0 9.45zm4.72 -130.61l0 125.89 -9.44 0 0 -125.89 3.23 -4.48 6.21 4.48zm-9.44 0c0,-2.61 2.12,-4.72 4.72,-4.72 2.61,0 4.72,2.11 4.72,4.72l-9.44 0zm180.25 -53.43l-174.04 57.91 -2.98 -8.96 174.04 -57.91 6.21 4.48 -3.23 4.48zm-2.98 -8.96c2.47,-0.82 5.15,0.52 5.97,2.99 0.82,2.47 -0.51,5.15 -2.99,5.97l-2.98 -8.96zm-3.23 188.28l0 -183.8 9.44 0 0 183.8 -4.72 4.72 -4.72 -4.72zm9.44 0c0,2.6 -2.11,4.72 -4.72,4.72 -2.6,0 -4.72,-2.12 -4.72,-4.72l9.44 0zm-68.61 -4.73l63.89 0 0 9.45 -63.89 0 0 -9.45z"/>
     </g>
    </g>
    <g>
     <g>
      <path class="fil0" d="M78.42 177.31l-36.82 0 0 -9.44 36.82 0 4.72 4.72 -4.72 4.72zm0 -9.44c2.61,0 4.72,2.11 4.72,4.72 0,2.6 -2.11,4.72 -4.72,4.72l0 -9.44zm-4.72 37.13l0 -32.41 9.44 0 0 32.41 -4.72 4.72 -4.72 -4.72zm9.44 0c0,2.61 -2.11,4.72 -4.72,4.72 -2.61,0 -4.72,-2.11 -4.72,-4.72l9.44 0zm-41.54 -4.72l36.82 0 0 9.44 -36.82 0 -4.72 -4.72 4.72 -4.72zm0 9.44c-2.61,0 -4.72,-2.11 -4.72,-4.72 0,-2.6 2.11,-4.72 4.72,-4.72l0 9.44zm4.72 -37.13l0 32.41 -9.44 0 0 -32.41 4.72 -4.72 4.72 4.72zm-9.44 0c0,-2.61 2.11,-4.72 4.72,-4.72 2.61,0 4.72,2.11 4.72,4.72l-9.44 0z"/>
     </g>
     <g>
      <path class="fil0" d="M115.24 177.31l-36.82 0 0 -9.44 36.82 0 4.72 4.72 -4.72 4.72zm0 -9.44c2.61,0 4.72,2.11 4.72,4.72 0,2.6 -2.11,4.72 -4.72,4.72l0 -9.44zm-4.72 37.13l0 -32.41 9.44 0 0 32.41 -4.72 4.72 -4.72 -4.72zm9.44 0c0,2.61 -2.11,4.72 -4.72,4.72 -2.6,0 -4.72,-2.11 -4.72,-4.72l9.44 0zm-41.54 -4.72l36.82 0 0 9.44 -36.82 0 -4.72 -4.72 4.72 -4.72zm0 9.44c-2.61,0 -4.72,-2.11 -4.72,-4.72 0,-2.6 2.11,-4.72 4.72,-4.72l0 9.44zm4.72 -37.13l0 32.41 -9.44 0 0 -32.41 4.72 -4.72 4.72 4.72zm-9.44 0c0,-2.61 2.11,-4.72 4.72,-4.72 2.61,0 4.72,2.11 4.72,4.72l-9.44 0z"/>
     </g>
     <g>
      <path class="fil0" d="M96.83 144.89l-36.82 0 0 -9.44 36.82 0 4.72 4.72 -4.72 4.72zm0 -9.44c2.61,0 4.72,2.11 4.72,4.72 0,2.61 -2.11,4.72 -4.72,4.72l0 -9.44zm-4.72 37.14l0 -32.42 9.44 0 0 32.42 -4.72 4.72 -4.72 -4.72zm9.44 0c0,2.6 -2.11,4.72 -4.72,4.72 -2.6,0 -4.72,-2.12 -4.72,-4.72l9.44 0zm-41.54 -4.72l36.82 0 0 9.44 -36.82 0 -4.72 -4.72 4.72 -4.72zm0 9.44c-2.61,0 -4.72,-2.12 -4.72,-4.72 0,-2.61 2.11,-4.72 4.72,-4.72l0 9.44zm4.72 -37.14l0 32.42 -9.44 0 0 -32.42 4.72 -4.72 4.72 4.72zm-9.44 0c0,-2.61 2.11,-4.72 4.72,-4.72 2.61,0 4.72,2.11 4.72,4.72l-9.44 0z"/>
     </g>
    </g>
   </g>
  </g>
 </g>
</svg>
