<?xml version="1.0" encoding="UTF-8"?>
<!DOCTYPE svg PUBLIC "-//W3C//DTD SVG 1.1//EN" "http://www.w3.org/Graphics/SVG/1.1/DTD/svg11.dtd">
<!-- Creator: CorelDRAW 2019 (64-Bit) -->
<svg xmlns="http://www.w3.org/2000/svg" xml:space="preserve" width="400px" height="210px" version="1.1" style="shape-rendering:geometricPrecision; text-rendering:geometricPrecision; image-rendering:optimizeQuality; fill-rule:evenodd; clip-rule:evenodd"
viewBox="0 0 400 210"
 xmlns:xlink="http://www.w3.org/1999/xlink"
 xmlns:xodm="http://www.corel.com/coreldraw/odm/2003">
 <defs>
  <style type="text/css">
   <![CDATA[
    .fil0 {fill:#1E3A8A;fill-rule:nonzero}
   ]]>
  </style>
 </defs>
 <g id="Слой_x0020_2">
  <metadata id="CorelCorpID_0Corel-Layer"/>
  <g id="_2170135905056">
   <polygon class="fil0" points="260.29,116.72 260.29,193.51 270.46,193.51 270.46,116.72 "/>
   <polygon id="1" class="fil0" points="315.1,193.51 315.1,116.79 304.93,116.79 304.93,146.57 291.04,128.08 291.04,116.79 280.87,116.79 280.87,193.51 291.04,193.51 291.04,145.53 304.93,164.04 304.93,193.51 "/>
   <polygon id="2" class="fil0" points="349.32,116.79 342.82,152.42 340.31,166.22 337.9,152.42 331.64,116.79 321.47,116.79 327.97,152.42 335.4,193.19 335.46,193.51 345.5,193.51 352.99,152.42 359.49,116.79 "/>
   <path id="3" class="fil0" d="M387.45 116.72l0 32.63c0,3.99 -2.99,7.23 -6.67,7.23l-0.55 0c-3.68,0 -6.67,-3.24 -6.67,-7.23l0 -32.63 -10.17 0 0 32.63c0,8.26 5.08,15.25 12.04,17.5l0 26.66 10.16 0 -0.01 -26.66c6.95,-2.25 12.04,-9.24 12.04,-17.5l0 -32.63 -10.17 0z"/>
   <g>
    <g>
     <path class="fil0" d="M159.42 193.51l-44.06 0 0 -9.44 44.06 0 4.73 4.72 -4.73 4.72zm0 -9.44c2.61,0 4.73,2.11 4.73,4.72 0,2.61 -2.12,4.72 -4.73,4.72l0 -9.44zm4.73 -130.92l0 135.64 -9.45 0 0 -135.64 3.55 -4.57 5.9 4.57zm-9.45 0c0,-2.61 2.12,-4.72 4.72,-4.72 2.61,0 4.73,2.11 4.73,4.72l-9.45 0zm-131.53 30.05l135.08 -34.62 2.35 9.14 -135.09 34.62 -5.89 -4.57 3.55 -4.57zm2.34 9.14c-2.52,0.65 -5.09,-0.87 -5.74,-3.4 -0.65,-2.52 0.88,-5.1 3.4,-5.74l2.34 9.14zm-5.89 96.45l0 -101.02 9.44 0 0 101.02 -4.72 4.72 -4.72 -4.72zm9.44 0c0,2.61 -2.11,4.72 -4.72,4.72 -2.6,0 -4.72,-2.11 -4.72,-4.72l9.44 0zm12.66 4.72l-17.38 0 0 -9.44 17.38 0 0 9.44z"/>
    </g>
    <g>
     <g>
      <path class="fil0" d="M242.59 48.7l-65.78 -39.66 4.88 -8.08 65.77 39.65 2.29 4.04 -7.16 4.05zm4.87 -8.09c2.24,1.35 2.95,4.25 1.61,6.48 -1.35,2.23 -4.25,2.95 -6.48,1.61l4.87 -8.09zm-7.15 148.18l0 -144.14 9.44 0 0 144.14 -4.72 4.72 -4.72 -4.72zm9.44 0c0,2.61 -2.12,4.72 -4.72,4.72 -2.61,0 -4.72,-2.11 -4.72,-4.72l9.44 0zm-70.5 -4.72l65.78 0 0 9.44 -65.78 0 -4.72 -4.72 4.72 -4.72zm0 9.44c-2.61,0 -4.72,-2.11 -4.72,-4.72 0,-2.61 2.11,-4.72 4.72,-4.72l0 9.44zm4.72 -188.51l0 183.79 -9.44 0 0 -183.79 7.16 -4.04 2.28 4.04zm-9.44 0c0,-2.61 2.11,-4.72 4.72,-4.72 2.61,0 4.72,2.11 4.72,4.72l-9.44 0z"/>
     </g>
     <g>
      <path class="fil0" d="M5.21 184.07l36.51 0 0 9.44 -36.51 0 -4.72 -4.72 4.72 -4.72zm0 9.44c-2.6,0 -4.72,-2.11 -4.72,-4.72 0,-2.61 2.12,-4.72 4.72,-4.72l0 9.44zm4.73 -130.6l0 125.88 -9.45 0 0 -125.88 3.23 -4.48 6.22 4.48zm-9.45 0c0,-2.61 2.12,-4.72 4.72,-4.72 2.61,0 4.73,2.11 4.73,4.72l-9.45 0zm180.25 -53.43l-174.03 57.91 -2.99 -8.96 174.04 -57.91 6.21 4.48 -3.23 4.48zm-2.98 -8.96c2.47,-0.82 5.15,0.52 5.97,2.99 0.82,2.47 -0.51,5.15 -2.99,5.97l-2.98 -8.96zm-3.23 188.27l0 -183.79 9.44 0 0 183.79 -4.72 4.72 -4.72 -4.72zm9.44 0c0,2.61 -2.11,4.72 -4.72,4.72 -2.61,0 -4.72,-2.11 -4.72,-4.72l9.44 0zm-68.61 -4.72l63.89 0 0 9.44 -63.89 0 0 -9.44z"/>
     </g>
    </g>
    <g>
     <g>
      <path class="fil0" d="M78.54 177.3l-36.82 0 0 -9.44 36.82 0 4.72 4.72 -4.72 4.72zm0 -9.44c2.61,0 4.72,2.12 4.72,4.72 0,2.61 -2.11,4.72 -4.72,4.72l0 -9.44zm-4.72 37.14l0 -32.42 9.44 0 0 32.42 -4.72 4.72 -4.72 -4.72zm9.44 0c0,2.61 -2.11,4.72 -4.72,4.72 -2.6,0 -4.72,-2.11 -4.72,-4.72l9.44 0zm-41.54 -4.72l36.82 0 0 9.44 -36.82 0 -4.72 -4.72 4.72 -4.72zm0 9.44c-2.61,0 -4.72,-2.11 -4.72,-4.72 0,-2.61 2.11,-4.72 4.72,-4.72l0 9.44zm4.72 -37.14l0 32.42 -9.44 0 0 -32.42 4.72 -4.72 4.72 4.72zm-9.44 0c0,-2.6 2.11,-4.72 4.72,-4.72 2.61,0 4.72,2.12 4.72,4.72l-9.44 0z"/>
     </g>
     <g>
      <path class="fil0" d="M115.36 177.3l-36.82 0 0 -9.44 36.82 0 4.73 4.72 -4.73 4.72zm0 -9.44c2.61,0 4.73,2.12 4.73,4.72 0,2.61 -2.12,4.72 -4.73,4.72l0 -9.44zm-4.72 37.14l0 -32.42 9.45 0 0 32.42 -4.73 4.72 -4.72 -4.72zm9.45 0c0,2.61 -2.12,4.72 -4.73,4.72 -2.6,0 -4.72,-2.11 -4.72,-4.72l9.45 0zm-41.55 -4.72l36.82 0 0 9.44 -36.82 0 -4.72 -4.72 4.72 -4.72zm0 9.44c-2.6,0 -4.72,-2.11 -4.72,-4.72 0,-2.61 2.12,-4.72 4.72,-4.72l0 9.44zm4.72 -37.14l0 32.42 -9.44 0 0 -32.42 4.72 -4.72 4.72 4.72zm-9.44 0c0,-2.6 2.12,-4.72 4.72,-4.72 2.61,0 4.72,2.12 4.72,4.72l-9.44 0z"/>
     </g>
     <g>
      <path class="fil0" d="M96.95 144.89l-36.82 0 0 -9.44 36.82 0 4.72 4.72 -4.72 4.72zm0 -9.44c2.61,0 4.72,2.11 4.72,4.72 0,2.6 -2.11,4.72 -4.72,4.72l0 -9.44zm-4.72 37.13l0 -32.41 9.44 0 0 32.41 -4.72 4.72 -4.72 -4.72zm9.44 0c0,2.61 -2.11,4.72 -4.72,4.72 -2.6,0 -4.72,-2.11 -4.72,-4.72l9.44 0zm-41.54 -4.72l36.82 0 0 9.44 -36.82 0 -4.72 -4.72 4.72 -4.72zm0 9.44c-2.61,0 -4.72,-2.11 -4.72,-4.72 0,-2.6 2.11,-4.72 4.72,-4.72l0 9.44zm4.72 -37.13l0 32.41 -9.44 0 0 -32.41 4.72 -4.72 4.72 4.72zm-9.44 0c0,-2.61 2.11,-4.72 4.72,-4.72 2.61,0 4.72,2.11 4.72,4.72l-9.44 0z"/>
     </g>
    </g>
   </g>
  </g>
 </g>
</svg>
