<?xml version="1.0" encoding="UTF-8"?>
<!DOCTYPE svg PUBLIC "-//W3C//DTD SVG 1.1//EN" "http://www.w3.org/Graphics/SVG/1.1/DTD/svg11.dtd">
<!-- Creator: CorelDRAW 2019 (64-Bit) -->
<svg xmlns="http://www.w3.org/2000/svg" xml:space="preserve" width="190px" height="200px" version="1.1" style="shape-rendering:geometricPrecision; text-rendering:geometricPrecision; image-rendering:optimizeQuality; fill-rule:evenodd; clip-rule:evenodd"
viewBox="0 0 190 200"
 xmlns:xlink="http://www.w3.org/1999/xlink"
 xmlns:xodm="http://www.corel.com/coreldraw/odm/2003">
 <defs>
  <style type="text/css">
   <![CDATA[
    .fil1 {fill:#1E3A8A}
    .fil0 {fill:#1E3A8A;fill-rule:nonzero}
   ]]>
  </style>
 </defs>
 <g id="Слой_x0020_1">
  <metadata id="CorelCorpID_0Corel-Layer"/>
  <g>
   <path class="fil0" d="M72.02 46.64l-69.56 -35.53 4.22 -8.22 69.55 35.53 2.5 4.09 -6.71 4.13zm4.21 -8.22c2.27,1.16 3.16,3.94 1.99,6.2 -1.16,2.27 -3.94,3.17 -6.2,2.02l4.21 -8.22zm-6.71 154.6l0 -150.47 9.21 -0.04 0 150.47 -6.71 4.13 -2.5 -4.09zm9.21 -0.04c0,2.55 -2.06,4.62 -4.6,4.63 -2.55,0.01 -4.61,-2.04 -4.61,-4.59l9.21 -0.04zm-72.05 -39.62l69.55 35.53 -4.21 8.22 -69.56 -35.53 -2.49 -4.09 6.71 -4.13zm-4.22 8.22c-2.26,-1.16 -3.15,-3.94 -1.98,-6.2 1.16,-2.27 3.94,-3.17 6.2,-2.02l-4.22 8.22zm6.72 -154.6l0 150.47 -9.21 0.04 0 -150.47 6.71 -4.13 2.5 4.09zm-9.21 0.04c0,-2.55 2.06,-4.62 4.6,-4.63 2.55,-0.01 4.61,2.04 4.61,4.59l-9.21 0.04z"/>
  </g>
  <g>
   <path class="fil0" d="M126.5 157.47l0 -62.09 9.24 0 0 62.09 -4.62 4.62 -4.62 -4.62zm9.24 0c0,2.55 -2.07,4.62 -4.62,4.62 -2.55,0 -4.62,-2.07 -4.62,-4.62l9.24 0zm-61.61 -4.62l56.99 0 0 9.24 -56.99 0 0 -9.24zm56.99 -141.23l-126.55 0 0 -9.24 126.55 0 4.62 4.62 -4.62 4.62zm0 -9.24c2.55,0 4.62,2.07 4.62,4.62 0,2.55 -2.07,4.62 -4.62,4.62l0 -9.24zm-4.62 53.58l0 -48.96 9.24 0 0 48.96 -9.24 0z"/>
  </g>
  <g>
   <polygon class="fil1" points="98.04,64.12 144.39,64.12 144.39,87.22 98.04,87.22 "/>
   <path id="1" class="fil0" d="M144.39 64.9l-46.35 0 0 -1.55 46.35 0 0.77 0.77 -0.77 0.78zm0 -1.55c0.42,0 0.77,0.34 0.77,0.77 0,0.43 -0.35,0.78 -0.77,0.78l0 -1.55zm-0.78 23.87l0 -23.1 1.55 0 0 23.1 -0.77 0.77 -0.78 -0.77zm1.55 0c0,0.43 -0.35,0.77 -0.77,0.77 -0.43,0 -0.78,-0.34 -0.78,-0.77l1.55 0zm-47.12 -0.78l46.35 0 0 1.55 -46.35 0 -0.77 -0.77 0.77 -0.78zm0 1.55c-0.43,0 -0.77,-0.34 -0.77,-0.77 0,-0.43 0.34,-0.78 0.77,-0.78l0 1.55zm0.77 -23.87l0 23.1 -1.54 0 0 -23.1 0.77 -0.77 0.77 0.77zm-1.54 0c0,-0.43 0.34,-0.77 0.77,-0.77 0.43,0 0.77,0.34 0.77,0.77l-1.54 0z"/>
  </g>
  <g>
   <polygon class="fil1" points="189.22,75.6 166.11,92.96 143,110.31 143,75.6 143,40.89 166.11,58.24 "/>
   <path id="1" class="fil0" d="M165.65 92.33l23.1 -17.35 0.93 1.24 -23.11 17.36 0 0 -0.92 -1.25zm0.92 1.25c-0.34,0.26 -0.83,0.19 -1.08,-0.16 -0.26,-0.34 -0.19,-0.83 0.16,-1.09l0.92 1.25zm-24.03 16.11l23.11 -17.36 0.92 1.25 -23.11 17.36 -1.23 -0.63 0.31 -0.62zm0.92 1.25c-0.34,0.25 -0.82,0.18 -1.08,-0.16 -0.26,-0.34 -0.18,-0.83 0.16,-1.09l0.92 1.25zm0.31 -35.34l0 34.71 -1.54 0 0 -34.71 0 0 1.54 0zm-1.54 0c0,-0.43 0.34,-0.78 0.77,-0.78 0.43,0 0.77,0.35 0.77,0.78l-1.54 0zm1.54 -34.71l0 34.71 -1.54 0 0 -34.71 1.23 -0.63 0.31 0.63zm-1.54 0c0,-0.43 0.34,-0.78 0.77,-0.78 0.43,0 0.77,0.35 0.77,0.78l-1.54 0zm23.42 17.98l-23.11 -17.36 0.92 -1.25 23.11 17.36 -0.92 1.25zm0.92 -1.25c0.34,0.26 0.41,0.74 0.16,1.09 -0.26,0.34 -0.74,0.41 -1.08,0.16l0.92 -1.25zm22.18 18.6l-23.1 -17.35 0.92 -1.25 23.11 17.36 0 1.24 -0.93 0zm0.93 -1.24c0.34,0.25 0.41,0.74 0.16,1.08 -0.26,0.35 -0.74,0.42 -1.09,0.16l0.93 -1.24z"/>
  </g>
 </g>
 <g id="Слой_x0020_2" visibility="hidden">
  <metadata id="CorelCorpID_1Corel-Layer"/>
  <g>
   <path class="fil1" d="M95 46.15l0 46.16c-25.49,0 -46.15,-20.67 -46.15,-46.16 0,-25.49 20.66,-46.15 46.15,-46.15l0 46.15z"/>
   <path class="fil0" d="M95 200l-92.31 0c0,-50.98 41.33,-92.31 92.31,-92.31l0 92.31z"/>
   <g>
    <path class="fil1" d="M95 46.15l0 46.16c25.49,0 46.15,-20.67 46.15,-46.16 0,-25.49 -20.66,-46.15 -46.15,-46.15l0 46.15zm9.62 35.26l0 -35.26 0 -35.26c6.22,1.7 11.79,4.99 16.22,9.43 6.61,6.61 10.7,15.74 10.7,25.83 0,10.09 -4.09,19.23 -10.7,25.84 -4.43,4.43 -10,7.73 -16.22,9.42z"/>
   </g>
   <g>
    <path class="fil1" d="M95 200l92.31 0c0,-50.98 -41.33,-92.31 -92.31,-92.31l0 92.31zm82.14 -9.61l-72.52 0 0 -72.53c18.99,2.2 36.02,10.83 48.85,23.67 12.83,12.83 21.47,29.86 23.67,48.86z"/>
   </g>
  </g>
 </g>
</svg>
